<?xml version="1.0" encoding="utf-8"?>
<!-- Generator: Adobe Illustrator 25.2.0, SVG Export Plug-In . SVG Version: 6.00 Build 0)  -->
<svg version="1.1" id="Alcon_Blue" xmlns="http://www.w3.org/2000/svg" xmlns:xlink="http://www.w3.org/1999/xlink" x="0px" y="0px"
	 viewBox="0 0 216 54.9" style="enable-background:new 0 0 216 54.9;" xml:space="preserve">
<g>
	<path style="fill:none;" d="M47.2,33.4c0,0-7.1-2.2-8.5-2.7c-1.3-0.5-2.9-0.4-4,0c-0.6,0.2-2.7,1.1-4.6,2c-0.6,0.3-1.2,0.6-1.8,0.8
		c-1.1,0.5-1.9,0.8-1.9,0.8s-0.7-0.3-1.8-0.9c-0.7-0.2-1.4-0.5-2.1-1c-2.5-1.2-5.5-2.6-6.2-3c-1.8-0.9-2.9,1.5-1.5,2.4
		c0.9,0.5,11.7,7.1,12.8,7.8c1.1,0.7,1.9,0.7,2.9,0.4s9.3-2.8,9.6-2.8c0.2,0,2.7,1,4.5,1.6l6.4-6.4c0.5-0.5,0.9-1,1.2-1.5l-3.8-1.3
		L47.2,33.4z"/>
	<path style="fill:none;" d="M7.2,20.8c0,0,5.6,1.9,7,2.4c1.3,0.5,3.1,0.2,4.2-0.3c0.6-0.2,2.7-1.1,4.7-2c0.5-0.3,1-0.5,1.5-0.7
		c1.2-0.5,2.1-0.9,2.1-0.9s1,0.5,2.3,1.1c0.3,0.1,0.6,0.3,1,0.5c2.6,1.3,6,2.9,6.7,3.3c1.8,0.9,3-1.6,1.5-2.4
		c-0.9-0.5-11.8-7.2-12.9-7.9c-1.1-0.7-2-0.7-3-0.4s-9.2,3-9.5,3c-0.2,0-2.7-0.9-4.4-1.6L2.3,21c-0.6,0.6-1.1,1.3-1.5,2l5,1.7
		L7.2,20.8z"/>
	<path style="fill:#1E4286;" d="M24.6,33.5c1.1,0.5,1.8,0.9,1.8,0.9s0.8-0.3,1.9-0.8c-0.6,0.2-1.2,0.2-1.8,0.2
		C25.9,33.7,25.2,33.6,24.6,33.5z"/>
	<path style="fill:#1E4286;" d="M29,20.5c-1.3-0.7-2.3-1.1-2.3-1.1s-0.9,0.4-2.1,0.9c0.6-0.2,1.3-0.3,1.9-0.3
		C27.4,20,28.3,20.2,29,20.5z"/>
	<path style="fill:#1E4286;" d="M51.1,21L32.4,2.4c-3.1-3.1-8.3-3.1-11.4,0L8.5,14.9c1.8,0.7,4.2,1.6,4.4,1.6c0.3,0,8.5-2.8,9.5-3
		s1.9-0.3,3,0.4c1.1,0.7,11.9,7.4,12.9,7.9c1.5,0.8,0.3,3.3-1.5,2.4c-0.8-0.4-4.1-2-6.7-3.3c2,1.2,3.4,3.4,3.4,5.9
		c0,2.5-1.3,4.6-3.2,5.8c2-0.9,4.1-1.8,4.6-2c1.1-0.4,2.6-0.5,4,0c1.3,0.5,8.5,2.7,8.5,2.7l1.3-3.8l3.8,1.3
		C54.1,27.8,53.8,23.7,51.1,21z"/>
	<path style="fill:#1E4286;" d="M30.6,40c-1,0.3-1.8,0.3-2.9-0.4c-1.1-0.7-11.9-7.2-12.8-7.8c-1.5-0.8-0.4-3.2,1.5-2.4
		c0.7,0.3,3.7,1.8,6.2,3c-1.8-1.2-2.9-3.3-2.9-5.6c0-2.5,1.4-4.7,3.4-5.9c-2,0.9-4.2,1.8-4.7,2c-1.1,0.4-2.9,0.8-4.2,0.3
		c-1.3-0.5-7-2.4-7-2.4l-1.3,3.9l-5-1.7c-1.5,3-1.1,6.9,1.5,9.4L21,51.1c3.1,3.1,8.3,3.1,11.4,0l12.3-12.3c-1.8-0.7-4.3-1.6-4.5-1.6
		C40,37.2,31.6,39.8,30.6,40z"/>
	<path style="fill:none;" d="M24.6,33.5c-0.6-0.3-1.3-0.6-2.1-1C23.2,32.9,23.9,33.2,24.6,33.5z"/>
	<path style="fill:none;" d="M30.1,32.7c-0.6,0.3-1.3,0.6-1.8,0.8C29,33.3,29.6,33,30.1,32.7z"/>
	<path style="fill:none;" d="M30,21c-0.3-0.2-0.6-0.3-1-0.5C29.3,20.6,29.7,20.8,30,21z"/>
	<path style="fill:none;" d="M23.1,21c0.5-0.2,1.1-0.5,1.5-0.7C24,20.5,23.5,20.7,23.1,21z"/>
	<path style="fill:none;" d="M26.5,19.4c-0.7,0-1.3,0.1-1.9,0.3c-0.5,0.2-1,0.5-1.5,0.7c-2,1.2-3.4,3.6-3.4,6.2
		c0,2.4,1.2,4.6,2.9,5.9c0.8,0.4,1.5,0.7,2.1,1c0.6,0.2,1.2,0.3,1.9,0.3c0.6,0,1.2-0.1,1.8-0.3c0.6-0.3,1.2-0.5,1.8-0.8
		c1.9-1.3,3.2-3.5,3.2-6.1c0-2.6-1.4-4.9-3.4-6.2c-0.3-0.2-0.7-0.3-1-0.5C28.3,19.5,27.4,19.4,26.5,19.4z M30.2,26.6
		c0,2.1-1.6,3.8-3.6,3.8S23,28.7,23,26.6c0-0.5,0.1-1,0.3-1.5c-0.1-0.2-0.2-0.5-0.2-0.8c0-0.8,0.7-1.5,1.5-1.5
		c0.3,0,0.6,0.1,0.8,0.3c0.4-0.1,0.8-0.2,1.2-0.2C28.6,22.8,30.2,24.5,30.2,26.6z"/>
	<path style="fill:#1E4286;" d="M25.3,23.6c0.4,0.3,0.6,0.7,0.6,1.2c0,0.8-0.7,1.5-1.5,1.5c-0.5,0-1-0.3-1.3-0.7
		C23.1,26,23,26.4,23,26.9c0,2,1.6,3.6,3.6,3.6s3.6-1.6,3.6-3.6c0-2-1.6-3.6-3.6-3.6C26.1,23.3,25.7,23.4,25.3,23.6z"/>
	<path style="fill:none;" d="M24.5,26.2c0.8,0,1.5-0.7,1.5-1.5c0-0.5-0.3-1-0.6-1.2c-0.9,0.3-1.7,1.1-2.1,2
		C23.5,25.9,24,26.2,24.5,26.2z"/>
</g>
<text transform="matrix(1 0 0 1 34.5448 51.7544)" style="fill:#1E4286; font-family:'MyriadPro-Regular'; font-size:2.3499px;">TM</text>
<text transform="matrix(0.75 0 0 1 58.5619 14.645)" style="fill:#1E4286; font-family:'MyriadPro-Bold'; font-size:17.4971px;">Clinical and Technical</text>
<text transform="matrix(0.76 0 0 1 89.643 37.7095)" style="fill:#1E4286; font-family:'MyriadPro-Bold'; font-size:29.4269px;">Services</text>
<text transform="matrix(0.75 0 0 1 75.0077 51.23)" style="fill:#1E4286; font-family:'MyriadPro-Bold'; font-size:14.7135px;">Support Like No Other</text>
<line style="fill:none;stroke:#1E4286;stroke-width:0.3977;stroke-miterlimit:10;" x1="202" y1="46.2" x2="214.5" y2="46.2"/>
<line style="fill:none;stroke:#1E4286;stroke-width:0.3977;stroke-miterlimit:10;" x1="59.4" y1="46.2" x2="71.8" y2="46.2"/>
</svg>
