<?xml version="1.0" encoding="utf-8"?>
<!-- Generator: Adobe Illustrator 25.2.0, SVG Export Plug-In . SVG Version: 6.00 Build 0)  -->
<svg version="1.1" id="Layer_2" xmlns="http://www.w3.org/2000/svg" xmlns:xlink="http://www.w3.org/1999/xlink" x="0px" y="0px"
	 viewBox="0 0 45.4 29.4" style="enable-background:new 0 0 45.4 29.4;" xml:space="preserve">
<line style="fill:none;stroke:#000000;stroke-width:2;stroke-miterlimit:10;" x1="7" y1="16.9" x2="22.1" y2="16.9"/>
<polyline style="fill:none;stroke:#000000;stroke-width:2;stroke-miterlimit:10;" points="7,21 14.7,21 22.1,21 "/>
<line style="fill:none;stroke:#000000;stroke-width:2;stroke-miterlimit:10;" x1="14.7" y1="25.5" x2="14.7" y2="21"/>
<path style="fill:none;stroke:#000000;stroke-width:2;stroke-miterlimit:10;" d="M27.4,19.8c-2,5-6.9,8.6-12.7,8.6
	C7.1,28.4,1,22.2,1,14.7C1,7.1,7.1,1,14.7,1c6.2,0,11.4,4.1,13.1,9.8l0,0c-0.8,0.2-13.1,2.7-13.1,2.7V9.6L1.1,12.7"/>
<g>
	<rect x="29.8" y="7" style="fill:#FFFFFF;stroke:#000000;stroke-width:1.0915;stroke-miterlimit:10;" width="15.1" height="15.1"/>
	<text transform="matrix(1 0 0 1 33.6177 17.8895)" style="font-family:'Verdana-Bold'; font-size:8.7321px;">R</text>
</g>
</svg>
