<?xml version="1.0" encoding="utf-8"?>
<!-- Generator: Adobe Illustrator 25.2.0, SVG Export Plug-In . SVG Version: 6.00 Build 0)  -->
<svg version="1.1" id="Layer_1" xmlns="http://www.w3.org/2000/svg" xmlns:xlink="http://www.w3.org/1999/xlink" x="0px" y="0px"
	 viewBox="0 0 36.5 22.5" style="enable-background:new 0 0 36.5 22.5;" xml:space="preserve">
<g>
	<path d="M7.1,15.1V6.5h3.7c0.9,0,1.6,0.1,2,0.2s0.7,0.4,1,0.8s0.4,0.8,0.4,1.4c0,0.6-0.2,1.2-0.6,1.6s-0.9,0.7-1.7,0.8
		c0.4,0.2,0.7,0.5,0.9,0.7s0.6,0.7,1,1.4l1,1.7h-2.1l-1.3-1.9c-0.4-0.7-0.8-1.1-0.9-1.3s-0.3-0.3-0.5-0.4s-0.5-0.1-0.9-0.1H8.9v3.6
		H7.1z M8.9,10.2h1.3c0.8,0,1.4,0,1.6-0.1s0.4-0.2,0.5-0.4s0.2-0.4,0.2-0.6c0-0.3-0.1-0.5-0.2-0.7S11.8,8.1,11.5,8
		c-0.1,0-0.6,0-1.3,0H8.9V10.2z"/>
	<path d="M15.8,15.1V6.5h6.4V8h-4.6v1.9h4.3v1.4h-4.3v2.3h4.8v1.4H15.8z"/>
	<path d="M23.8,15.1V6.5h5.9V8h-4.2v2h3.6v1.5h-3.6v3.7H23.8z"/>
</g>
<rect x="0.5" y="0.5" style="fill:none;stroke:#000000;stroke-miterlimit:10;" width="35.5" height="21.5"/>
</svg>
