<?xml version="1.0" encoding="utf-8"?>
<!-- Generator: Adobe Illustrator 25.2.0, SVG Export Plug-In . SVG Version: 6.00 Build 0)  -->
<svg version="1.1" id="Layer_1" xmlns="http://www.w3.org/2000/svg" xmlns:xlink="http://www.w3.org/1999/xlink" x="0px" y="0px"
	 viewBox="0 0 29.1 28.1" style="enable-background:new 0 0 29.1 28.1;" xml:space="preserve">
<path style="stroke:#000000;stroke-width:0.5;stroke-linecap:round;stroke-linejoin:round;stroke-miterlimit:10;" d="M12,27.8
	c-15.6,0-16.3-27.6,1.7-27.6c-5.4,3.7-6.1,13.3-3.2,17.5C10.1,12.1,9.6,1.1,21.9,1.1c-11.4,6.6-8.3,22.8,0.2,26.1
	c-7.3,0.5-15-1.9-17.6-14.1C4.5,20.4,6.3,24.1,12,27.8z"/>
<path style="stroke:#000000;stroke-width:0.5;stroke-linecap:round;stroke-linejoin:round;stroke-miterlimit:10;" d="M25.5,4.2
	c-12.3-0.6-12.3,21.4,0,20.8C17.6,20.3,17.7,7.7,25.5,4.2z"/>
<path style="stroke:#000000;stroke-width:0.5;stroke-linecap:round;stroke-linejoin:round;stroke-miterlimit:10;" d="M28.7,6.5
	c-9.9,0-9.7,15.8,0.2,15.8C23.4,19,23.4,8.8,28.7,6.5z"/>
</svg>
